# Blender v2.83.4 OBJ File: ''
# www.blender.org
mtllib Heart_FULL1.mtl
o 12190_Heart_v1_L3
v 6.644673 -3.015826 -7.654456
v 5.716321 -3.875571 -16.700516
v 7.378646 -2.282009 -18.713308
v 10.082795 -1.765436 -11.428957
v 8.895526 -3.083914 -13.725297
v 9.030716 -0.876935 -8.035122
v 10.252356 0.973537 -10.815122
v 0.008021 -3.016018 -16.556427
v 3.393929 -1.978071 -19.252504
v 1.535012 -2.961554 -3.904216
v 0.679426 -0.636716 -0.076520
v 4.107628 -4.326810 -9.853149
v 2.838263 -1.207627 -1.993334
v 7.191133 0.010922 -19.581326
v 10.532193 -0.716223 -15.246703
v 9.140054 1.435513 -17.494335
v 3.656825 0.161254 -20.084679
v -9.007562 -3.018669 -14.118306
v -9.915185 -0.482624 -16.969351
v -8.316970 -1.706501 -18.326445
v -2.740428 -4.004577 -7.221270
v -1.419805 -4.644335 -12.973104
v -6.007681 -3.970802 -16.035988
v -10.093417 -1.553578 -10.961521
v -4.298357 -2.514566 -19.155024
v -5.680014 -1.193686 -4.533573
v -9.029339 -0.296284 -7.975204
v -6.779804 -2.572096 -7.034908
v -1.017240 -1.245704 -0.738221
v -7.325953 -3.459835 -10.064016
v -2.921420 0.452977 -1.482246
v -6.888328 0.433401 -19.701830
v -3.284488 -0.286058 -19.911533
v 0.012988 -1.406467 -17.617632
v 6.362286 0.597956 -4.754712
v 6.542749 2.557677 -18.654661
v 6.137771 4.098950 -14.937064
v 5.237385 2.914391 -6.146560
v 4.750295 3.731599 -16.987453
v 8.909815 2.656298 -10.163991
v 10.037250 2.106552 -14.173284
v 3.434002 2.120011 -19.126455
v 0.191555 2.679035 -2.852835
v 0.251777 0.902597 -0.224260
v 3.533229 4.318025 -9.055723
v -0.007939 0.878868 -17.836491
v -7.125606 2.164296 -18.840305
v -8.634088 2.994601 -15.540081
v -4.833495 3.528534 -17.738518
v -6.995159 3.928902 -12.356702
v -7.817492 2.243631 -7.871468
v -9.990333 1.998788 -11.509305
v 0.121284 4.172821 -14.472761
v 0.006340 3.032078 -16.505312
v -3.294558 1.627700 -19.401302
v -4.227600 4.508090 -11.051055
v -10.778393 0.267491 -14.322787
v -4.006143 3.027162 -5.412213
vt 0.181499 0.037855
vt 0.209022 0.087901
vt 0.091502 0.176580
vt 0.030093 0.325233
vt 0.116791 0.380360
vt 0.067881 0.430500
vt 0.148986 0.237950
vt 0.583896 0.580910
vt 0.510832 0.599022
vt 0.495648 0.553291
vt 0.158759 0.443436
vt 0.247783 0.397292
vt 0.261659 0.298176
vt 0.307048 0.168200
vt 0.017424 0.838833
vt 0.097581 0.835160
vt 0.012731 0.851094
vt 0.071663 0.795873
vt 0.158166 0.823309
vt 0.041483 0.698856
vt 0.040963 0.655063
vt 0.126123 0.700006
vt 0.135418 0.651581
vt 0.220205 0.662224
vt 0.217622 0.717842
vt 0.385245 0.378294
vt 0.441264 0.423033
vt 0.338713 0.437792
vt 0.465451 0.325603
vt 0.412925 0.159835
vt 0.280959 0.021113
vt 0.424100 0.231100
vt 0.471834 0.259906
vt 0.206462 0.830728
vt 0.221896 0.807954
vt 0.273569 0.842427
vt 0.312708 0.650812
vt 0.413710 0.663940
vt 0.386400 0.708425
vt 0.247424 0.484643
vt 0.257302 0.534743
vt 0.182686 0.501793
vt 0.239932 0.636271
vt 0.301450 0.689667
vt 0.861905 0.072437
vt 0.877699 0.136889
vt 0.763084 0.012023
vt 0.901057 0.443963
vt 0.868978 0.395140
vt 0.914267 0.335921
vt 0.970225 0.406382
vt 0.718341 0.498951
vt 0.736168 0.525322
vt 0.671748 0.499051
vt 0.841150 0.443962
vt 0.755433 0.397955
vt 0.756175 0.343774
vt 0.757850 0.062823
vt 0.831499 0.220814
vt 0.166228 0.792689
vt 0.959098 0.233227
vt 0.059097 0.743054
vt 0.008115 0.726616
vt 0.520435 0.494515
vt 0.603843 0.520246
vt 0.132982 0.743086
vt 0.198790 0.757500
vt 0.644198 0.414213
vt 0.584706 0.288901
vt 0.669901 0.241972
vt 0.308875 0.560253
vt 0.259614 0.585529
vt 0.172000 0.581314
vt 0.694275 0.436753
vt 0.658657 0.120589
vt 0.566446 0.174066
vt 0.107168 0.549908
vt 0.050413 0.584930
vt 0.047045 0.530741
vt 0.395834 0.744377
vt 0.300490 0.731279
vt 0.529229 0.279432
vt 0.689477 0.035359
vt 0.008243 0.380059
vt 0.792385 0.553663
vt 0.667714 0.559534
vt 0.429959 0.573312
vt 0.436138 0.513091
vt 0.020796 0.258063
vt 0.655856 0.597593
vt 0.210787 0.640876
vt 0.229742 0.009798
vt 0.387061 0.109766
vt 0.477384 0.388476
vt 0.279860 0.500190
vt 0.349471 0.521380
vt 0.372950 0.537334
vt 0.111719 0.479226
vt 0.984113 0.330609
vt 0.618393 0.483947
vt 0.581551 0.436400
vt 0.542378 0.367504
vt 0.085443 0.600043
vt 0.437487 0.712246
vt 0.022501 0.587238
vt 0.324531 0.752116
vt 0.221709 0.755024
vn 0.5247 -0.5040 0.6861
vn 0.1344 -0.8973 0.4204
vn 0.4656 -0.7961 0.3865
vn 0.5581 -0.8273 -0.0639
vn 0.1540 -0.9317 -0.3290
vn 0.4533 -0.5780 -0.6785
vn 0.1706 -0.9768 0.1296
vn 0.8480 -0.4945 0.1907
vn 0.9369 -0.2192 -0.2723
vn -0.1816 -0.5706 -0.8009
vn -0.0224 -0.8148 -0.5793
vn -0.0393 -0.9941 -0.1015
vn -0.1454 -0.9526 0.2671
vn 0.8181 -0.2306 0.5268
vn 0.6932 0.2062 0.6906
vn 0.2000 -0.2993 0.9330
vn 0.4354 0.0098 -0.9002
vn -0.1622 0.0368 -0.9861
vn -0.0136 -0.3804 -0.9247
vn 0.0106 0.2654 -0.9641
vn -0.1974 -0.9429 -0.2682
vn -0.5571 -0.5078 -0.6571
vn 0.0314 -0.6595 -0.7511
vn -0.6259 -0.7740 -0.0956
vn -0.5250 -0.7164 0.4596
vn -0.2778 -0.5559 0.7835
vn -0.4009 -0.8964 0.1891
vn -0.8814 -0.4078 0.2382
vn -0.5573 0.2370 0.7958
vn -0.6426 -0.3874 0.6610
vn -0.3535 0.0694 -0.9329
vn -0.8397 -0.0645 0.5392
vn 0.2377 -0.0860 -0.9675
vn 0.4092 0.7939 0.4497
vn 0.0401 0.4670 0.8833
vn 0.3009 0.6859 -0.6626
vn 0.0286 0.9164 -0.3991
vn 0.2713 0.9529 -0.1357
vn 0.7413 0.3939 -0.5434
vn 0.6159 0.7339 0.2866
vn -0.1887 0.6010 -0.7767
vn 0.0148 0.7793 -0.6265
vn -0.0049 0.9702 -0.2421
vn 0.0162 0.8841 0.4670
vn 0.1434 0.9759 0.1642
vn 0.7924 0.5990 -0.1151
vn 0.9331 0.2399 0.2677
vn -0.0478 0.8794 -0.4737
vn -0.3416 0.9385 0.0508
vn -0.1469 0.9853 0.0874
vn -0.6103 0.6487 0.4548
vn -0.8242 0.5311 0.1966
vn 0.2140 0.4765 -0.8527
vn -0.3111 0.8522 0.4208
vn -0.9883 0.0681 -0.1364
vn -0.5862 0.7679 -0.2582
vn -0.8805 -0.0850 -0.4664
vn -0.4230 0.5903 -0.6875
usemtl Heart
s 1
f 13/1/1 10/2/2 1/3/3
f 5/4/4 2/5/5 3/6/6
f 10/2/2 12/7/7 1/3/3
f 4/8/8 5/9/4 15/10/9
f 9/11/10 3/6/6 2/5/5
f 12/7/7 2/5/5 5/4/4
f 8/12/11 2/5/5 22/13/12
f 12/7/7 10/2/2 21/14/13
f 6/15/14 13/16/1 1/17/3
f 13/16/1 35/18/15 11/19/16
f 14/20/17 3/21/6 17/22/18
f 3/21/6 9/23/10 17/22/18
f 9/23/10 34/24/19 17/22/18
f 46/25/20 17/22/18 34/24/19
f 23/26/21 20/27/22 25/28/23
f 20/27/22 23/26/21 18/29/24
f 28/30/25 21/14/13 29/31/26
f 30/32/27 24/33/28 18/29/24
f 8/12/11 22/13/12 25/28/23
f 23/26/21 21/14/13 30/32/27
f 29/34/26 31/35/29 26/36/30
f 25/37/23 20/38/22 32/39/31
f 28/40/25 27/41/32 24/42/28
f 25/37/23 34/24/19 8/43/11
f 34/24/19 25/37/23 33/44/33
f 46/25/20 34/24/19 33/44/33
f 35/45/15 38/46/34 44/47/35
f 36/48/36 39/49/37 37/50/38
f 16/51/39 36/48/36 37/50/38
f 38/52/34 35/53/15 40/54/40
f 39/49/37 42/55/41 54/56/42
f 54/56/42 53/57/43 39/49/37
f 43/58/44 38/46/34 45/59/45
f 53/57/43 37/50/38 39/49/37
f 35/18/15 44/60/35 11/19/16
f 40/61/40 45/59/45 38/46/34
f 36/62/36 16/63/39 14/20/17
f 41/64/46 7/65/47 15/10/9
f 42/66/41 36/62/36 17/22/18
f 42/66/41 46/25/20 54/67/42
f 46/25/20 42/66/41 17/22/18
f 38/46/34 43/58/44 44/47/35
f 49/68/48 50/69/49 56/70/50
f 31/71/29 51/72/51 27/41/32
f 27/41/32 52/73/52 24/42/28
f 54/56/42 49/68/48 53/57/43
f 55/74/53 49/68/48 54/56/42
f 58/75/54 43/58/44 56/70/50
f 56/70/50 53/57/43 49/68/48
f 44/60/35 31/35/29 11/19/16
f 43/58/44 45/59/45 56/70/50
f 56/70/50 50/69/49 51/76/51
f 57/77/55 48/78/56 19/79/57
f 47/80/58 55/81/53 32/39/31
f 52/82/52 51/76/51 50/69/49
f 55/81/53 46/25/20 33/44/33
f 31/83/29 44/47/35 58/75/54
f 15/84/9 5/4/4 3/6/6
f 22/13/12 2/5/5 12/7/7
f 8/12/11 9/11/10 2/5/5
f 12/7/7 21/14/13 22/13/12
f 5/4/4 1/3/3 12/7/7
f 13/85/1 6/86/14 35/53/15
f 3/21/6 14/20/17 16/63/39
f 3/87/6 16/88/39 15/10/9
f 7/65/47 6/86/14 4/8/8
f 7/65/47 4/8/8 15/10/9
f 5/4/4 4/89/8 1/3/3
f 6/86/14 1/90/3 4/8/8
f 9/23/10 8/91/11 34/24/19
f 29/31/26 10/2/2 11/92/16
f 13/1/1 11/92/16 10/2/2
f 28/30/25 29/31/26 26/93/30
f 20/27/22 18/29/24 19/94/57
f 28/30/25 30/32/27 21/14/13
f 18/29/24 23/26/21 30/32/27
f 28/95/25 26/96/30 27/41/32
f 25/28/23 22/13/12 23/26/21
f 31/35/29 29/34/26 11/19/16
f 21/14/13 23/26/21 22/13/12
f 26/96/30 31/97/29 27/41/32
f 57/77/55 19/79/57 18/98/24
f 24/42/28 57/77/55 18/98/24
f 25/37/23 32/39/31 33/44/33
f 30/32/27 28/30/25 24/33/28
f 29/31/26 21/14/13 10/2/2
f 41/99/46 16/51/39 37/50/38
f 41/64/46 40/100/40 7/65/47
f 42/55/41 39/49/37 36/48/36
f 37/50/38 40/61/40 41/99/46
f 7/65/47 35/53/15 6/86/14
f 7/65/47 40/54/40 35/53/15
f 56/70/50 37/50/38 53/57/43
f 45/59/45 37/50/38 56/70/50
f 40/61/40 37/50/38 45/59/45
f 15/10/9 16/88/39 41/64/46
f 14/20/17 17/22/18 36/62/36
f 51/76/51 31/83/29 58/75/54
f 47/101/58 48/102/56 49/68/48
f 48/103/56 57/77/55 52/73/52
f 50/69/49 49/68/48 48/102/56
f 50/69/49 48/102/56 52/82/52
f 27/41/32 51/72/51 52/73/52
f 58/75/54 56/70/50 51/76/51
f 47/80/58 32/39/31 19/104/57
f 32/39/31 20/38/22 19/104/57
f 19/79/57 48/78/56 47/105/58
f 24/42/28 52/73/52 57/77/55
f 32/39/31 55/81/53 33/44/33
f 47/80/58 49/106/48 55/81/53
f 55/81/53 54/107/42 46/25/20
f 43/58/44 58/75/54 44/47/35
